<?xml version="1.0" encoding="utf-8"?>
<!-- Generator: Adobe Illustrator 23.0.3, SVG Export Plug-In . SVG Version: 6.00 Build 0)  -->
<svg version="1.1" id="Capa_1" xmlns="http://www.w3.org/2000/svg" xmlns:xlink="http://www.w3.org/1999/xlink" x="0px" y="0px"
	 viewBox="0 0 582.11 76.99" style="enable-background:new 0 0 582.11 76.99;" xml:space="preserve">
<path d="M334.13,43.95c0,6.16,0,11.87,0,17.79c-2.52,0-4.78,0-7.27,0c0-8.18,0-16.39,0-24.89c4.13,0,8.13,0,12.13,0
	c10.37,0,20.74,0.06,31.11-0.04c4.12-0.04,6.16-1.76,6.36-4.83c0.24-3.62-2.18-5.98-6.34-5.99c-13.14-0.04-26.27-0.02-39.41-0.02
	c-1.24,0-2.49,0-3.9,0c0-2.45,0-4.6,0-7.08c0.94-0.07,1.92-0.2,2.91-0.2c13.71-0.02,27.42-0.05,41.14-0.03
	c6.1,0.01,11.2,3.86,12.86,9.58c1.49,5.12-0.59,11.19-5.14,13.9c-1.99,1.19-4.42,1.63-7.21,2.62c3.57,5.39,7.3,11.03,11.15,16.85
	c-4.91,0.84-8.98,0.94-11.63-4.35c-1.99-3.97-4.9-7.5-7.57-11.1c-0.72-0.97-2.05-2.09-3.13-2.11
	C351.67,43.88,343.16,43.95,334.13,43.95z"/>
<path d="M65.18,51.88c0-11.26,0-22.02,0-32.97c2.54,0,4.78,0,7.24,0c0,14.27,0,28.46,0,42.83c-3.39,0.26-6.29,0.49-9.32-2.02
	C50.62,49.39,37.86,39.4,25.19,29.29c-0.26-0.21-0.59-0.33-1.41-0.77c0,11.22,0,22.13,0,33.23c-2.74,0-4.98,0-7.44,0
	c0-14.29,0-28.49,0-42.73c4.25-0.84,7.69-0.19,11.19,2.71C39.74,31.83,52.25,41.57,65.18,51.88z"/>
<path d="M219.93,18.94c2.44,0,4.48,0,7.08,0c0,1.12,0,2.33,0,3.54c0,8.29-0.02,16.58,0.02,24.87c0.03,5.09,2.99,8.29,8.05,8.35
	c9.9,0.11,19.8,0.09,29.7,0.01c4.65-0.04,7.83-2.99,7.96-7.76c0.23-8.4,0.1-16.8,0.11-25.2c0-1.14,0-2.27,0-3.68
	c2.42,0,4.65,0,7.21,0c0.06,0.84,0.18,1.83,0.18,2.82c0.02,8.75,0.03,17.5,0,26.25c-0.03,8.61-5.78,14.43-14.46,14.5
	c-10.47,0.09-20.95,0.09-31.43,0.02c-8.61-0.06-14.32-5.68-14.4-14.21C219.86,38.68,219.93,28.91,219.93,18.94z"/>
<path d="M519.15,61.19c7.72-7.03,15.44-14.06,22.52-20.51c-6.5-7.31-13.06-14.68-19.44-21.86c3.95,0.18,8.85-1.64,12.72,3.46
	c3.68,4.84,8.05,9.15,12.39,14c5.33-5.18,10.01-8.99,13.74-13.57c4.14-5.08,9.16-3.97,14.98-3.84
	c-7.64,7.28-14.78,14.08-22.16,21.12c7.41,7.14,14.72,14.19,22.61,21.79c-5.97,0.24-10.75,0.93-14.79-3.95
	c-3.99-4.81-9.04-8.75-13.72-13.16c-5.1,4.72-10.27,9.3-15.17,14.14c-2.37,2.34-4.81,3.63-8.18,3.17c-1.68-0.23-3.42-0.04-5.14-0.04
	C519.39,61.69,519.27,61.44,519.15,61.19z"/>
<path d="M481.66,61.92c-2.7,0-5.01,0.26-7.2-0.11c-1.08-0.18-2.23-1.37-2.88-2.39c-6.71-10.57-13.32-21.2-19.97-31.8
	c-0.24-0.38-0.61-0.67-1.15-1.23c-4.21,6.55-8.34,12.97-12.46,19.41c-2.72,4.26-5.63,8.42-8.05,12.84
	c-1.49,2.72-3.34,3.74-6.29,3.34c-1.35-0.18-2.75-0.03-4.68-0.03c0.63-1.18,1.03-2.06,1.54-2.86c8.16-12.78,16.34-25.54,24.5-38.31
	c1.77-2.77,8.9-3.06,10.66-0.3c8.43,13.28,16.81,26.6,25.21,39.9C481.09,60.72,481.25,61.12,481.66,61.92z"/>
<path d="M120.02,61.79c0-2.52,0-4.67,0-7.04c18.02,0,35.88,0,53.94,0c0,2.36,0,4.61,0,7.04C156.05,61.79,138.18,61.79,120.02,61.79z
	"/>
<path d="M173.93,18.85c0,2.47,0,4.61,0,6.93c-17.94,0-35.72,0-53.78,0c0-2.2,0-4.43,0-6.93C137.93,18.85,155.8,18.85,173.93,18.85z"
	/>
<path d="M166.72,36.65c0,2.54,0,4.7,0,7.07c-15.54,0-30.93,0-46.58,0c0-2.26,0-4.57,0-7.07C135.67,36.65,151.05,36.65,166.72,36.65z
	"/>
</svg>
